<svg xmlns="http://www.w3.org/2000/svg" xmlns:xlink="http://www.w3.org/1999/xlink" width="1920" height="1080" viewBox="0 0 1920 1080"><defs><clipPath id="a"><rect width="133" height="387" fill="none"/></clipPath><clipPath id="c"><rect width="1920" height="1080"/></clipPath></defs><g id="b" clip-path="url(#c)"><rect width="1920" height="1080" fill="#fff"/><g fill="#fff" stroke="#707070" stroke-width="1"><rect width="321" height="1080" stroke="none"/><rect x="0.5" y="0.5" width="320" height="1079" fill="none"/></g><g transform="translate(23 23)"><g fill="#fff" stroke="#707070" stroke-width="1"><rect width="276" height="94" stroke="none"/><rect x="0.5" y="0.5" width="275" height="93" fill="none"/></g></g><g transform="translate(63 50)"><text transform="translate(0 32)" fill="#707070" font-size="30" font-family="SegoeUI, Segoe UI"><tspan x="0" y="0">Periodic Tables</tspan></text></g><g transform="translate(23 117)"><g fill="#fff" stroke="#707070" stroke-width="1"><rect width="276" height="939" stroke="none"/><rect x="0.5" y="0.5" width="275" height="938" fill="none"/></g></g><g transform="translate(95 165)"><g clip-path="url(#a)"><text transform="translate(0 32)" fill="#707070" font-size="30" font-family="SegoeUI, Segoe UI"><tspan x="0" y="0">Nav Items</tspan></text><g transform="translate(0 109)"><text transform="translate(0 32)" fill="#707070" font-size="30" font-family="SegoeUI, Segoe UI"><tspan x="0" y="0">Nav Items</tspan></text></g><g transform="translate(0 218)"><text transform="translate(0 32)" fill="#707070" font-size="30" font-family="SegoeUI, Segoe UI"><tspan x="0" y="0">Nav Items</tspan></text></g><g transform="translate(0 327)"><text transform="translate(0 32)" fill="#707070" font-size="30" font-family="SegoeUI, Segoe UI"><tspan x="0" y="0">Nav Items</tspan></text></g></g></g><g transform="translate(321)"><g fill="#fff" stroke="#707070" stroke-width="1"><rect width="1599" height="125" stroke="none"/><rect x="0.5" y="0.5" width="1598" height="124" fill="none"/></g></g><g transform="translate(321 10)"><text transform="translate(24 77)" fill="#707070" font-size="71" font-family="SegoeUI, Segoe UI"><tspan x="0" y="0">Add Table</tspan></text><g transform="translate(0 115)"><g fill="#fff" stroke="#707070" stroke-width="1"><rect width="1599" height="955" stroke="none"/><rect x="0.5" y="0.5" width="1598" height="954" fill="none"/></g></g><g transform="translate(119 407)"><text transform="translate(0 38)" fill="#707070" font-size="35" font-family="SegoeUI, Segoe UI"><tspan x="0" y="0">Table Name</tspan></text></g><g transform="translate(763 407)"><text transform="translate(0 38)" fill="#707070" font-size="35" font-family="SegoeUI, Segoe UI"><tspan x="0" y="0">Table Capacity</tspan></text></g><g transform="translate(119 470)"><g fill="#fff" stroke="#707070" stroke-width="1"><rect width="431" height="68" stroke="none"/><rect x="0.5" y="0.5" width="430" height="67" fill="none"/></g></g><g transform="translate(763 470)"><g fill="#fff" stroke="#707070" stroke-width="1"><rect width="431" height="68" stroke="none"/><rect x="0.5" y="0.5" width="430" height="67" fill="none"/></g></g><g transform="translate(119 850)"><g fill="#fff" stroke="#707070" stroke-width="1"><rect width="244" height="81" rx="30" stroke="none"/><rect x="0.5" y="0.5" width="243" height="80" rx="29.5" fill="none"/></g></g><g transform="translate(462 850)"><g fill="#fff" stroke="#707070" stroke-width="1"><rect width="185" height="81" rx="30" stroke="none"/><rect x="0.5" y="0.5" width="184" height="80" rx="29.5" fill="none"/></g></g><text transform="translate(152 902)" fill="#707070" font-size="27" font-family="SegoeUI, Segoe UI"><tspan x="0" y="0">Add New Table</tspan></text><text transform="translate(515 902)" fill="#707070" font-size="27" font-family="SegoeUI, Segoe UI"><tspan x="0" y="0">Cancel</tspan></text></g></g></svg>