<svg xmlns="http://www.w3.org/2000/svg" xmlns:xlink="http://www.w3.org/1999/xlink" width="1920" height="1080" viewBox="0 0 1920 1080"><defs><clipPath id="a"><rect width="133" height="387" fill="none"/></clipPath><clipPath id="b"><rect width="1045" height="876" fill="none"/></clipPath><clipPath id="c"><rect width="429" height="27" fill="none"/></clipPath><clipPath id="d"><rect width="554" height="426" fill="none"/></clipPath><clipPath id="e"><rect width="71" height="367" fill="none"/></clipPath><clipPath id="f"><rect width="10" height="353" fill="none"/></clipPath><clipPath id="g"><rect width="858" height="27" fill="none"/></clipPath><clipPath id="i"><rect width="1920" height="1080"/></clipPath></defs><g id="h" clip-path="url(#i)"><rect width="1920" height="1080" fill="#fff"/><g fill="#fff" stroke="#707070" stroke-width="1"><rect width="321" height="1080" stroke="none"/><rect x="0.5" y="0.5" width="320" height="1079" fill="none"/></g><g transform="translate(23 23)"><g fill="#fff" stroke="#707070" stroke-width="1"><rect width="276" height="94" stroke="none"/><rect x="0.5" y="0.5" width="275" height="93" fill="none"/></g></g><g transform="translate(63 48)"><text transform="translate(0 32)" fill="#707070" font-size="30" font-family="SegoeUI, Segoe UI"><tspan x="0" y="0">Periodic Tables</tspan></text></g><g transform="translate(23 117)" fill="#fff" stroke="#707070" stroke-width="1"><rect width="276" height="935" stroke="none"/><rect x="0.5" y="0.5" width="275" height="934" fill="none"/></g><g transform="translate(93 153)"><g clip-path="url(#a)"><text transform="translate(0 32)" fill="#707070" font-size="30" font-family="SegoeUI, Segoe UI"><tspan x="0" y="0">Nav Items</tspan></text><g transform="translate(0 109)"><text transform="translate(0 32)" fill="#707070" font-size="30" font-family="SegoeUI, Segoe UI"><tspan x="0" y="0">Nav Items</tspan></text></g><g transform="translate(0 218)"><text transform="translate(0 32)" fill="#707070" font-size="30" font-family="SegoeUI, Segoe UI"><tspan x="0" y="0">Nav Items</tspan></text></g><g transform="translate(0 327)"><text transform="translate(0 32)" fill="#707070" font-size="30" font-family="SegoeUI, Segoe UI"><tspan x="0" y="0">Nav Items</tspan></text></g></g></g><g transform="translate(321)"><g fill="#fff" stroke="#707070" stroke-width="1"><rect width="1599" height="125" stroke="none"/><rect x="0.5" y="0.5" width="1598" height="124" fill="none"/></g></g><text transform="translate(359 88)" fill="#707070" font-size="60" font-family="SegoeUI, Segoe UI"><tspan x="0" y="0">Dashboard</tspan></text><g transform="translate(321 204)" clip-path="url(#b)"><g transform="translate(-321 -204)"><g transform="translate(321 204)"><g fill="#fff" stroke="#707070" stroke-width="1"><rect width="1045" height="158" stroke="none"/><rect x="0.5" y="0.5" width="1044" height="157" fill="none"/></g></g></g><g transform="translate(-321 -26)"><g transform="translate(321 204)"><g fill="#fff" stroke="#707070" stroke-width="1"><rect width="1045" height="158" stroke="none"/><rect x="0.5" y="0.5" width="1044" height="157" fill="none"/></g></g></g><g transform="translate(-321 152)"><g transform="translate(321 204)"><g fill="#fff" stroke="#707070" stroke-width="1"><rect width="1045" height="158" stroke="none"/><rect x="0.5" y="0.5" width="1044" height="157" fill="none"/></g></g></g><g transform="translate(-321 330)"><g transform="translate(321 204)"><g fill="#fff" stroke="#707070" stroke-width="1"><rect width="1045" height="158" stroke="none"/><rect x="0.5" y="0.5" width="1044" height="157" fill="none"/></g></g></g><g transform="translate(-321 508)"><g transform="translate(321 204)"><g fill="#fff" stroke="#707070" stroke-width="1"><rect width="1045" height="158" stroke="none"/><rect x="0.5" y="0.5" width="1044" height="157" fill="none"/></g></g></g></g><g transform="translate(321 125)" fill="#fff" stroke="#707070" stroke-width="1"><rect width="1045" height="79" stroke="none"/><rect x="0.5" y="0.5" width="1044" height="78" fill="none"/></g><g transform="translate(1209 211)"><g fill="#fff" stroke="#707070" stroke-width="1"><rect width="144" height="60" rx="30" stroke="none"/><rect x="0.5" y="0.5" width="143" height="59" rx="29.5" fill="none"/></g></g><g transform="translate(1366 204)" fill="#fff" stroke="#707070" stroke-width="1"><rect width="554" height="876" stroke="none"/><rect x="0.5" y="0.5" width="553" height="875" fill="none"/></g><g transform="translate(1366 125)" fill="#fff" stroke="#707070" stroke-width="1"><rect width="554" height="79" stroke="none"/><rect x="0.5" y="0.5" width="553" height="78" fill="none"/></g><g transform="translate(1435 151)" clip-path="url(#c)"><g transform="translate(-1617 -156)"><text transform="translate(1617 178)" fill="#707070" font-size="20" font-family="SegoeUI, Segoe UI"><tspan x="0" y="0">Table</tspan></text></g><g transform="translate(-1498 -156)"><text transform="translate(1617 178)" fill="#707070" font-size="20" font-family="SegoeUI, Segoe UI"><tspan x="0" y="0">Capacity</tspan></text></g><g transform="translate(-1379 -156)"><text transform="translate(1617 178)" fill="#707070" font-size="20" font-family="SegoeUI, Segoe UI"><tspan x="0" y="0">Status</tspan></text></g><g transform="translate(-1260 -156)"><text transform="translate(1617 178)" fill="#707070" font-size="20" font-family="SegoeUI, Segoe UI"><tspan x="0" y="0">Action</tspan></text></g></g><g transform="translate(1508 139)"><line y2="55" fill="none" stroke="#707070" stroke-width="1" opacity="0.75"/></g><g transform="translate(1366 204)" clip-path="url(#d)"><g transform="translate(-1366 -204)"><g transform="translate(1366 204)" fill="#fff" stroke="#707070" stroke-width="1"><rect width="554" height="88" stroke="none"/><rect x="0.5" y="0.5" width="553" height="87" fill="none"/></g></g><g transform="translate(-1366 -96)"><g transform="translate(1366 204)" fill="#fff" stroke="#707070" stroke-width="1"><rect width="554" height="88" stroke="none"/><rect x="0.5" y="0.5" width="553" height="87" fill="none"/></g></g><g transform="translate(-1366 12)"><g transform="translate(1366 204)" fill="#fff" stroke="#707070" stroke-width="1"><rect width="554" height="88" stroke="none"/><rect x="0.5" y="0.5" width="553" height="87" fill="none"/></g></g><g transform="translate(-1366 120)"><g transform="translate(1366 204)" fill="#fff" stroke="#707070" stroke-width="1"><rect width="554" height="88" stroke="none"/><rect x="0.5" y="0.5" width="553" height="87" fill="none"/></g></g></g><g transform="translate(1556.097 907.619) rotate(-74)" opacity="0.5"><text transform="translate(0 155)" fill="#707070" font-size="144" font-family="SegoeUI, Segoe UI" opacity="0.5" style="mix-blend-mode:difference;isolation:isolate"><tspan x="0" y="0">EXAMPLES</tspan></text></g><g transform="translate(329.491 780.481) rotate(-34)" opacity="0.5"><text transform="translate(0 227)" fill="#707070" font-size="210" font-family="SegoeUI, Segoe UI" opacity="0.5" style="mix-blend-mode:difference;isolation:isolate"><tspan x="0" y="0">EXAMPLES</tspan></text></g><g transform="translate(1435 241)" clip-path="url(#e)"><g transform="translate(-1622 -241)"><g transform="translate(1622 241)"><text transform="translate(0 19)" fill="#707070" font-size="18" font-family="SegoeUI, Segoe UI"><tspan x="0" y="0">Table 1</tspan></text></g></g><g transform="translate(-1622 -137)"><g transform="translate(1622 241)"><text transform="translate(0 19)" fill="#707070" font-size="18" font-family="SegoeUI, Segoe UI"><tspan x="0" y="0">Table 7</tspan></text></g></g><g transform="translate(-1622 -33)"><g transform="translate(1622 241)"><text transform="translate(0 19)" fill="#707070" font-size="18" font-family="SegoeUI, Segoe UI"><tspan x="0" y="0">Table 10</tspan></text></g></g><g transform="translate(-1622 71)"><g transform="translate(1622 241)"><text transform="translate(0 19)" fill="#707070" font-size="18" font-family="SegoeUI, Segoe UI"><tspan x="0" y="0">Table 12 </tspan></text></g></g></g><g transform="translate(1688 241)"><text transform="translate(0 19)" fill="#707070" font-size="18" font-family="SegoeUI, Segoe UI"><tspan x="0" y="0">Free</tspan></text></g><g transform="translate(1662 345)"><text transform="translate(0 19)" fill="#707070" font-size="18" font-family="SegoeUI, Segoe UI"><tspan x="0" y="0">Occupied</tspan></text></g><g transform="translate(1701 449)"><text transform="translate(0 19)" fill="#707070" font-size="18" font-family="SegoeUI, Segoe UI"><tspan x="0" y="0">Free</tspan></text></g><g transform="translate(1660 553)"><text transform="translate(0 19)" fill="#707070" font-size="18" font-family="SegoeUI, Segoe UI"><tspan x="0" y="0">Occupied</tspan></text></g><text transform="translate(1264 248)" fill="#707070" font-size="18" font-family="SegoeUI, Segoe UI"><tspan x="0" y="0">Seat</tspan></text><g transform="translate(1650 139)"><line y2="55" fill="none" stroke="#707070" stroke-width="1" opacity="0.75"/></g><g transform="translate(1596 241)" clip-path="url(#f)"><g transform="translate(-1743 -241)"><text transform="translate(1743 260)" fill="#707070" font-size="18" font-family="SegoeUI, Segoe UI"><tspan x="0" y="0">1</tspan></text></g><g transform="translate(-1743 -137)"><text transform="translate(1743 260)" fill="#707070" font-size="18" font-family="SegoeUI, Segoe UI"><tspan x="0" y="0">2</tspan></text></g><g transform="translate(-1743 -33)"><text transform="translate(1743 260)" fill="#707070" font-size="18" font-family="SegoeUI, Segoe UI"><tspan x="0" y="0">6</tspan></text></g><g transform="translate(-1743 71)"><text transform="translate(1743 260)" fill="#707070" font-size="18" font-family="SegoeUI, Segoe UI"><tspan x="0" y="0">5</tspan></text></g></g><g transform="translate(1758 327)"><g fill="#fff" stroke="#707070" stroke-width="1"><rect width="144" height="60" rx="30" stroke="none"/><rect x="0.5" y="0.5" width="143" height="59" rx="29.5" fill="none"/></g></g><g transform="translate(1758 139)"><line y2="55" fill="none" stroke="#707070" stroke-width="1" opacity="0.75"/></g><text transform="translate(1807 364)" fill="#707070" font-size="18" font-family="SegoeUI, Segoe UI"><tspan x="0" y="0">Finish</tspan></text><g transform="translate(1758 540)"><g fill="#fff" stroke="#707070" stroke-width="1"><rect width="144" height="60" rx="30" stroke="none"/><rect x="0.5" y="0.5" width="143" height="59" rx="29.5" fill="none"/></g></g><text transform="translate(1807 580)" fill="#707070" font-size="18" font-family="SegoeUI, Segoe UI"><tspan x="0" y="0">Finish</tspan></text><g transform="translate(1209 295)"><g fill="#fff" stroke="#707070" stroke-width="1"><rect width="144" height="60" rx="30" stroke="none"/><rect x="0.5" y="0.5" width="143" height="59" rx="29.5" fill="none"/></g></g><text transform="translate(1264 334)" fill="#707070" font-size="20" font-family="SegoeUI, Segoe UI"><tspan x="0" y="0">Edit</tspan></text><g transform="translate(1049 211)"><g fill="#fff" stroke="#707070" stroke-width="1"><rect width="144" height="60" rx="30" stroke="none"/><rect x="0.5" y="0.5" width="143" height="59" rx="29.5" fill="none"/></g></g><text transform="translate(1092 250)" fill="#707070" font-size="20" font-family="SegoeUI, Segoe UI"><tspan x="0" y="0">Cancel</tspan></text><g transform="translate(359 151)" clip-path="url(#g)"><g transform="translate(-1617 -156)"><text transform="translate(1617 178)" fill="#707070" font-size="20" font-family="SegoeUI, Segoe UI"><tspan x="0" y="0">Name</tspan></text></g><g transform="translate(-1460 -156)"><text transform="translate(1617 178)" fill="#707070" font-size="20" font-family="SegoeUI, Segoe UI"><tspan x="0" y="0">Contact</tspan></text></g><g transform="translate(-1303 -156)"><text transform="translate(1617 178)" fill="#707070" font-size="20" font-family="SegoeUI, Segoe UI"><tspan x="0" y="0">Date</tspan></text></g><g transform="translate(-1146 -156)"><text transform="translate(1617 178)" fill="#707070" font-size="20" font-family="SegoeUI, Segoe UI"><tspan x="0" y="0">Time</tspan></text></g><g transform="translate(-989 -156)"><text transform="translate(1617 178)" fill="#707070" font-size="20" font-family="SegoeUI, Segoe UI"><tspan x="0" y="0">Status</tspan></text></g><g transform="translate(-832 -156)"><text transform="translate(1617 178)" fill="#707070" font-size="20" font-family="SegoeUI, Segoe UI"><tspan x="0" y="0">Actions</tspan></text></g></g><text transform="translate(1162 88)" fill="#707070" font-size="60" font-family="SegoeUI, Segoe UI"><tspan x="0" y="0">Reservations for date: {date}</tspan></text><text transform="translate(494 287)" fill="#707070" font-size="20" font-family="SegoeUI, Segoe UI"><tspan x="0" y="0">1234567890</tspan></text><text transform="translate(337 287)" fill="#707070" font-size="20" font-family="SegoeUI, Segoe UI"><tspan x="0" y="0">John Smith</tspan></text><text transform="translate(648 287)" fill="#707070" font-size="20" font-family="SegoeUI, Segoe UI"><tspan x="0" y="0">12-06-1997</tspan></text><text transform="translate(809 290)" fill="#707070" font-size="20" font-family="SegoeUI, Segoe UI"><tspan x="0" y="0">6:00 PM</tspan></text><text transform="translate(982 290)" fill="#707070" font-size="20" font-family="SegoeUI, Segoe UI"><tspan x="0" y="0">Booked</tspan></text><text transform="translate(986 831)" fill="#707070" font-size="20" font-family="SegoeUI, Segoe UI"><tspan x="0" y="0">Seated</tspan></text><text transform="translate(973 639)" fill="#707070" font-size="20" font-family="SegoeUI, Segoe UI"><tspan x="0" y="0">Cancelled</tspan></text><text transform="translate(976 482)" fill="#707070" font-size="20" font-family="SegoeUI, Segoe UI"><tspan x="0" y="0">Finished</tspan></text><g transform="translate(460 139)"><line y2="55" fill="none" stroke="#707070" stroke-width="1" opacity="0.75"/></g><g transform="translate(1090 139)"><line y2="55" fill="none" stroke="#707070" stroke-width="1" opacity="0.75"/></g><g transform="translate(940 139)"><line y2="55" fill="none" stroke="#707070" stroke-width="1" opacity="0.75"/></g><g transform="translate(770 139)"><line y2="55" fill="none" stroke="#707070" stroke-width="1" opacity="0.75"/></g><g transform="translate(623 139)"><line y2="55" fill="none" stroke="#707070" stroke-width="1" opacity="0.75"/></g></g></svg>