<svg xmlns="http://www.w3.org/2000/svg" xmlns:xlink="http://www.w3.org/1999/xlink" width="1920" height="1080" viewBox="1941 948 1920 1080"><defs><clipPath id="a"><rect width="133" height="387" fill="none"/></clipPath><clipPath id="c"><rect x="1941" y="948" width="1920" height="1080"/></clipPath></defs><g id="b" clip-path="url(#c)"><rect x="1941" y="948" width="1920" height="1080" fill="#fff"/><g transform="translate(1941 948)"><g fill="#fff" stroke="#707070" stroke-width="1"><rect width="321" height="1080" stroke="none"/><rect x="0.5" y="0.5" width="320" height="1079" fill="none"/></g></g><g transform="translate(1965 965)"><g fill="#fff" stroke="#707070" stroke-width="1"><rect width="276" height="94" stroke="none"/><rect x="0.5" y="0.5" width="275" height="93" fill="none"/></g></g><g transform="translate(2005 992)"><text transform="translate(0 32)" fill="#707070" font-size="30" font-family="SegoeUI, Segoe UI"><tspan x="0" y="0">Periodic Tables</tspan></text></g><g transform="translate(1965 1058)"><g fill="#fff" stroke="#707070" stroke-width="1"><rect width="276" height="939" stroke="none"/><rect x="0.5" y="0.5" width="275" height="938" fill="none"/></g></g><g transform="translate(2262 948)"><g fill="#fff" stroke="#707070" stroke-width="1"><rect width="1599" height="125" stroke="none"/><rect x="0.5" y="0.5" width="1598" height="124" fill="none"/></g></g><g transform="translate(2029 948)"><text transform="translate(256 87)" fill="#707070" font-size="81" font-family="SegoeUI, Segoe UI"><tspan x="0" y="0">New Reservation</tspan></text><g transform="translate(0 140)"><g clip-path="url(#a)"><text transform="translate(0 32)" fill="#707070" font-size="30" font-family="SegoeUI, Segoe UI"><tspan x="0" y="0">Nav Items</tspan></text><g transform="translate(0 109)"><text transform="translate(0 32)" fill="#707070" font-size="30" font-family="SegoeUI, Segoe UI"><tspan x="0" y="0">Nav Items</tspan></text></g><g transform="translate(0 218)"><text transform="translate(0 32)" fill="#707070" font-size="30" font-family="SegoeUI, Segoe UI"><tspan x="0" y="0">Nav Items</tspan></text></g><g transform="translate(0 327)"><text transform="translate(0 32)" fill="#707070" font-size="30" font-family="SegoeUI, Segoe UI"><tspan x="0" y="0">Nav Items</tspan></text></g></g></g></g><g transform="translate(2910 1104)"><text transform="translate(0 38)" fill="#707070" font-size="35" font-family="SegoeUI, Segoe UI"><tspan x="0" y="0">Last Name</tspan></text></g><g transform="translate(2322 1165)"><g fill="#fff" stroke="#707070" stroke-width="1"><rect width="431" height="68" stroke="none"/><rect x="0.5" y="0.5" width="430" height="67" fill="none"/></g></g><g transform="translate(2322 1104)"><text transform="translate(0 38)" fill="#707070" font-size="35" font-family="SegoeUI, Segoe UI"><tspan x="0" y="0">First Name</tspan></text></g><g transform="translate(2910 1165)"><g fill="#fff" stroke="#707070" stroke-width="1"><rect width="431" height="68" stroke="none"/><rect x="0.5" y="0.5" width="430" height="67" fill="none"/></g></g><g transform="translate(2322 1273)"><text transform="translate(0 38)" fill="#707070" font-size="35" font-family="SegoeUI, Segoe UI"><tspan x="0" y="0">Phone Number</tspan></text></g><g transform="translate(2322 1334)"><g fill="#fff" stroke="#707070" stroke-width="1"><rect width="431" height="68" stroke="none"/><rect x="0.5" y="0.5" width="430" height="67" fill="none"/></g></g><g transform="translate(2322 1442)"><text transform="translate(0 38)" fill="#707070" font-size="35" font-family="SegoeUI, Segoe UI"><tspan x="0" y="0">Date of Reservation</tspan></text></g><g transform="translate(2322 1503)"><g fill="#fff" stroke="#707070" stroke-width="1"><rect width="302" height="68" stroke="none"/><rect x="0.5" y="0.5" width="301" height="67" fill="none"/></g></g><g transform="translate(3091 1441)"><text transform="translate(0 38)" fill="#707070" font-size="35" font-family="SegoeUI, Segoe UI"><tspan x="0" y="0">Party Size</tspan></text></g><g transform="translate(3091 1503)"><g fill="#fff" stroke="#707070" stroke-width="1"><rect width="148" height="68" stroke="none"/><rect x="0.5" y="0.5" width="147" height="67" fill="none"/></g></g><g transform="translate(2705 1503)"><g fill="#fff" stroke="#707070" stroke-width="1"><rect width="305" height="68" stroke="none"/><rect x="0.5" y="0.5" width="304" height="67" fill="none"/></g></g><g transform="translate(2705 1442)"><text transform="translate(0 38)" fill="#707070" font-size="35" font-family="SegoeUI, Segoe UI"><tspan x="0" y="0">Time of Reservation</tspan></text></g><g transform="translate(2322 1736)"><g fill="#fff" stroke="#707070" stroke-width="1"><rect width="271" height="92" rx="30" stroke="none"/><rect x="0.5" y="0.5" width="270" height="91" rx="29.5" fill="none"/></g></g><g transform="translate(2642 1736)"><g fill="#fff" stroke="#707070" stroke-width="1"><rect width="216" height="92" rx="30" stroke="none"/><rect x="0.5" y="0.5" width="215" height="91" rx="29.5" fill="none"/></g></g><text transform="translate(2355 1793)" fill="#707070" font-size="27" font-family="SegoeUI, Segoe UI"><tspan x="0" y="0">Book Reservation</tspan></text><text transform="translate(2711 1793)" fill="#707070" font-size="27" font-family="SegoeUI, Segoe UI"><tspan x="0" y="0">Cancel</tspan></text></g></svg>